<?xml version="1.0" encoding="UTF-8"?>
<!DOCTYPE svg PUBLIC "-//W3C//DTD SVG 1.1//EN" "http://www.w3.org/Graphics/SVG/1.1/DTD/svg11.dtd">
<svg version="1.1" xmlns="http://www.w3.org/2000/svg" xmlns:xlink="http://www.w3.org/1999/xlink" x="0" y="0" width="267" height="304" viewBox="0, 0, 267, 304">
  <g id="Layer_1">
    <path d="M1.5,-0.5 C42.5,-0.5 83.5,-0.5 124.5,-0.5 C124.783,0.289 125.283,0.956 126,1.5 C126.667,11.833 126.667,22.167 126,32.5 C125.617,33.056 125.117,33.389 124.5,33.5 C109.833,33.5 95.167,33.5 80.5,33.5 C80.5,33.167 80.5,32.833 80.5,32.5 C95.167,32.5 109.833,32.5 124.5,32.5 C124.5,22.167 124.5,11.833 124.5,1.5 C83.5,1.5 42.5,1.5 1.5,1.5 C1.5,1.167 1.5,0.833 1.5,0.5 C1.5,0.167 1.5,-0.167 1.5,-0.5 z" fill="#636363" opacity="0.667"/>
    <path d="M1.5,0.5 C1.5,0.833 1.5,1.167 1.5,1.5 C1.5,11.833 1.5,22.167 1.5,32.5 C16.167,32.5 30.833,32.5 45.5,32.5 C45.5,32.833 45.5,33.167 45.5,33.5 C30.833,33.5 16.167,33.5 1.5,33.5 C0.833,33.167 0.167,32.833 -0.5,32.5 C-0.5,22.167 -0.5,11.833 -0.5,1.5 C0.167,1.167 0.833,0.833 1.5,0.5 z" fill="#474747" opacity="0.667"/>
    <path d="M1.5,1.5 C42.5,1.5 83.5,1.5 124.5,1.5 C124.5,11.833 124.5,22.167 124.5,32.5 C109.833,32.5 95.167,32.5 80.5,32.5 C79.501,91.998 79.168,151.664 79.5,211.5 C94.5,211.5 109.5,211.5 124.5,211.5 C124.334,221.172 124.5,230.839 125,240.5 C125.232,241.737 125.732,242.737 126.5,243.5 C134.46,257.165 146.46,264.832 162.5,266.5 C172.886,268.904 183.22,268.571 193.5,265.5 C196.916,265.472 199.916,264.472 202.5,262.5 C203.791,262.737 204.791,262.404 205.5,261.5 C216.868,257.465 224.535,249.798 228.5,238.5 C229.342,233.213 229.676,227.88 229.5,222.5 C229.768,220.901 229.434,219.568 228.5,218.5 C226.5,210.5 221.5,205.5 213.5,203.5 C212.486,202.326 211.153,201.66 209.5,201.5 C207.958,200.699 206.292,200.366 204.5,200.5 C202.708,200.634 201.042,200.301 199.5,199.5 C192.424,197.585 185.091,196.585 177.5,196.5 C170.381,194.928 163.047,193.928 155.5,193.5 C154.432,192.566 153.099,192.232 151.5,192.5 C135.32,189.601 120.82,182.935 108,172.5 C103.409,167.629 99.576,162.295 96.5,156.5 C96.737,155.209 96.404,154.209 95.5,153.5 C94.985,151.106 94.319,148.772 93.5,146.5 C93.198,143.627 92.531,140.961 91.5,138.5 C91.5,137.167 91.5,135.833 91.5,134.5 C90.767,124.198 92.1,114.198 95.5,104.5 C103.833,87.5 116.5,74.833 133.5,66.5 C140.929,64.133 148.262,61.8 155.5,59.5 C167.79,57.436 180.123,57.103 192.5,58.5 C194.961,59.531 197.627,60.198 200.5,60.5 C204.818,61.828 209.151,63.161 213.5,64.5 C215.426,66.293 217.759,67.293 220.5,67.5 C230.071,73.402 238.404,80.736 245.5,89.5 C251.396,98.304 255.396,107.971 257.5,118.5 C254.023,119.167 250.689,119.834 247.5,120.5 C245.167,120.5 242.833,120.5 240.5,120.5 C235.125,120.828 229.792,120.495 224.5,119.5 C220.375,106.374 211.708,98.04 198.5,94.5 C194.491,92.579 190.157,91.412 185.5,91 C178.42,90.205 171.42,90.372 164.5,91.5 C159.112,91.762 154.112,93.095 149.5,95.5 C137.895,98.773 130.228,106.106 126.5,117.5 C123.833,124.167 123.833,130.833 126.5,137.5 C126.707,140.241 127.707,142.574 129.5,144.5 C132.819,150.339 137.819,154.005 144.5,155.5 C148.805,157.746 153.471,159.08 158.5,159.5 C167.065,161.23 175.732,162.23 184.5,162.5 C189.975,163.859 195.642,164.859 201.5,165.5 C213.627,168.433 225.294,172.767 236.5,178.5 C242.789,183.286 248.622,188.62 254,194.5 C258.032,201.554 261.199,208.887 263.5,216.5 C264.76,224.504 264.76,232.504 263.5,240.5 C262.388,242.599 261.721,244.933 261.5,247.5 C261.5,247.833 261.5,248.167 261.5,248.5 C260.069,249.78 259.402,251.447 259.5,253.5 C258.662,253.842 258.328,254.508 258.5,255.5 C250.167,269.833 238.833,281.167 224.5,289.5 C222.181,289.992 220.181,290.992 218.5,292.5 C216.447,292.402 214.78,293.069 213.5,294.5 C210.215,294.928 207.215,295.928 204.5,297.5 C196.433,299.251 188.433,300.585 180.5,301.5 C176.5,301.5 172.5,301.5 168.5,301.5 C164.361,300.437 160.028,299.77 155.5,299.5 C155.167,299.5 154.833,299.5 154.5,299.5 C135.807,295.07 119.641,286.07 106,272.5 C102.812,268.099 99.645,263.766 96.5,259.5 C94.278,254.158 92.278,248.825 90.5,243.5 C61.005,242.502 31.338,242.169 1.5,242.5 C1.5,232.167 1.5,221.833 1.5,211.5 C16.5,211.5 31.5,211.5 46.5,211.5 C46.832,151.664 46.499,91.998 45.5,32.5 C30.833,32.5 16.167,32.5 1.5,32.5 C1.5,22.167 1.5,11.833 1.5,1.5 z" fill="#003B6F"/>
    <path d="M1.5,33.5 C16.167,33.5 30.833,33.5 45.5,33.5 C45.5,92.5 45.5,151.5 45.5,210.5 C30.833,210.5 16.167,210.5 1.5,210.5 C15.657,209.504 29.99,209.171 44.5,209.5 C44.5,151.167 44.5,92.833 44.5,34.5 C29.99,34.829 15.657,34.496 1.5,33.5 z" fill="#000000" opacity="0.029"/>
    <path d="M80.5,33.5 C95.167,33.5 109.833,33.5 124.5,33.5 C110.343,34.496 96.01,34.829 81.5,34.5 C81.5,92.833 81.5,151.167 81.5,209.5 C96.01,209.171 110.343,209.504 124.5,210.5 C109.833,210.5 95.167,210.5 80.5,210.5 C80.5,151.5 80.5,92.5 80.5,33.5 z" fill="#000000" opacity="0.029"/>
    <path d="M197.5,58.5 C195.833,58.5 194.167,58.5 192.5,58.5 C180.123,57.103 167.79,57.436 155.5,59.5 C154.167,59.5 152.833,59.5 151.5,59.5 C166.75,54.727 182.084,54.394 197.5,58.5 z" fill="#414141" opacity="0.667"/>
    <path d="M192.5,58.5 C194.167,58.5 195.833,58.5 197.5,58.5 C197.833,58.5 198.167,58.5 198.5,58.5 C199.167,59.167 199.833,59.833 200.5,60.5 C197.627,60.198 194.961,59.531 192.5,58.5 z" fill="#B3B3B3" opacity="0.667"/>
    <path d="M198.5,58.5 C204.673,59.334 210.339,61.334 215.5,64.5 C214.833,64.5 214.167,64.5 213.5,64.5 C209.151,63.161 204.818,61.828 200.5,60.5 C199.833,59.833 199.167,59.167 198.5,58.5 z" fill="#5E5E5E" opacity="0.2"/>
    <path d="M151.5,59.5 C152.833,59.5 154.167,59.5 155.5,59.5 C148.262,61.8 140.929,64.133 133.5,66.5 C132.833,66.5 132.167,66.5 131.5,66.5 C137.669,62.998 144.335,60.665 151.5,59.5 z" fill="#818181" opacity="0.667"/>
    <path d="M213.5,64.5 C214.167,64.5 214.833,64.5 215.5,64.5 C217.403,64.796 219.07,65.463 220.5,66.5 C220.5,66.833 220.5,67.167 220.5,67.5 C217.759,67.293 215.426,66.293 213.5,64.5 z" fill="#A8A8A8" opacity="0.833"/>
    <path d="M131.5,66.5 C132.167,66.5 132.833,66.5 133.5,66.5 C116.5,74.833 103.833,87.5 95.5,104.5 C95.5,103.833 95.5,103.167 95.5,102.5 C103.167,86.167 115.167,74.167 131.5,66.5 z" fill="#A7A7A7" opacity="0.89"/>
    <path d="M220.5,66.5 C230.353,71.686 238.686,78.686 245.5,87.5 C245.5,88.167 245.5,88.833 245.5,89.5 C238.404,80.736 230.071,73.403 220.5,67.5 C220.5,67.167 220.5,66.833 220.5,66.5 z" fill="#ACACAC" opacity="0.239"/>
    <path d="M245.5,87.5 C252.547,96.606 257.214,106.94 259.5,118.5 C259.145,119.522 258.478,120.189 257.5,120.5 C254.167,120.5 250.833,120.5 247.5,120.5 C250.689,119.834 254.023,119.167 257.5,118.5 C255.396,107.971 251.396,98.304 245.5,89.5 C245.5,88.833 245.5,88.167 245.5,87.5 z" fill="#888888" opacity="0.239"/>
    <path d="M198.5,94.5 C198.5,94.833 198.5,95.167 198.5,95.5 C185.972,92.44 173.306,91.774 160.5,93.5 C161.833,92.833 163.167,92.167 164.5,91.5 C171.42,90.372 178.42,90.206 185.5,91 C190.157,91.412 194.491,92.579 198.5,94.5 z" fill="#434343" opacity="0.028"/>
    <path d="M164.5,91.5 C163.167,92.167 161.833,92.833 160.5,93.5 C156.905,94.697 153.239,95.697 149.5,96.5 C149.5,96.167 149.5,95.833 149.5,95.5 C154.112,93.095 159.112,91.762 164.5,91.5 z" fill="#717171" opacity="0.2"/>
    <path d="M198.5,94.5 C211.708,98.04 220.375,106.374 224.5,119.5 C229.792,120.495 235.125,120.828 240.5,120.5 C235.36,121.488 230.026,121.821 224.5,121.5 C221.708,116.595 218.875,111.595 216,106.5 C210.772,101.752 204.939,98.086 198.5,95.5 C198.5,95.167 198.5,94.833 198.5,94.5 z" fill="#888888" opacity="0.239"/>
    <path d="M95.5,102.5 C95.5,103.167 95.5,103.833 95.5,104.5 C92.1,114.198 90.767,124.198 91.5,134.5 C90.512,129.36 90.179,124.026 90.5,118.5 C90.987,112.709 92.654,107.376 95.5,102.5 z" fill="#787878" opacity="0.667"/>
    <path d="M149.5,95.5 C149.5,95.833 149.5,96.167 149.5,96.5 C139.105,100.352 131.772,107.352 127.5,117.5 C127.167,117.5 126.833,117.5 126.5,117.5 C130.228,106.106 137.895,98.773 149.5,95.5 z" fill="#909090" opacity="0.239"/>
    <path d="M90.5,118.5 C90.179,124.026 90.512,129.36 91.5,134.5 C91.5,135.833 91.5,137.167 91.5,138.5 C91.5,140.167 91.5,141.833 91.5,143.5 C90.001,138.755 89.334,133.755 89.5,128.5 C89.502,124.982 89.835,121.649 90.5,118.5 z" fill="#0B0B0B" opacity="0.027"/>
    <path d="M240.5,120.5 C242.833,120.5 245.167,120.5 247.5,120.5 C250.833,120.5 254.167,120.5 257.5,120.5 C246.539,122.542 235.539,122.875 224.5,121.5 C230.026,121.821 235.36,121.488 240.5,120.5 z" fill="#070707" opacity="0.027"/>
    <path d="M126.5,117.5 C126.833,117.5 127.167,117.5 127.5,117.5 C126.167,124.167 126.167,130.833 127.5,137.5 C127.167,137.5 126.833,137.5 126.5,137.5 C123.833,130.833 123.833,124.167 126.5,117.5 z" fill="#525252" opacity="0.027"/>
    <path d="M126.5,137.5 C126.833,137.5 127.167,137.5 127.5,137.5 C128.736,139.649 129.736,141.982 130.5,144.5 C130.167,144.5 129.833,144.5 129.5,144.5 C127.707,142.574 126.707,140.241 126.5,137.5 z" fill="#787878" opacity="0.776"/>
    <path d="M91.5,138.5 C92.531,140.961 93.198,143.627 93.5,146.5 C92.833,145.833 92.167,145.167 91.5,144.5 C91.5,144.167 91.5,143.833 91.5,143.5 C91.5,141.833 91.5,140.167 91.5,138.5 z" fill="#AFAFAF" opacity="0.667"/>
    <path d="M91.5,144.5 C92.167,145.167 92.833,145.833 93.5,146.5 C94.319,148.772 94.985,151.106 95.5,153.5 C95.167,153.5 94.833,153.5 94.5,153.5 C92.747,150.854 91.747,147.854 91.5,144.5 z" fill="#666666" opacity="0.2"/>
    <path d="M129.5,144.5 C129.833,144.5 130.167,144.5 130.5,144.5 C134.329,148.994 138.996,152.328 144.5,154.5 C144.5,154.833 144.5,155.167 144.5,155.5 C137.819,154.005 132.819,150.339 129.5,144.5 z" fill="#999999" opacity="0.776"/>
    <path d="M94.5,153.5 C94.833,153.5 95.167,153.5 95.5,153.5 C96.404,154.209 96.737,155.209 96.5,156.5 C96.5,157.167 96.5,157.833 96.5,158.5 C95.069,157.22 94.402,155.553 94.5,153.5 z" fill="#4C4C4C" opacity="0.039"/>
    <path d="M144.5,154.5 C148.239,155.303 151.905,156.303 155.5,157.5 C156.5,158.167 157.5,158.833 158.5,159.5 C153.471,159.08 148.805,157.746 144.5,155.5 C144.5,155.167 144.5,154.833 144.5,154.5 z" fill="#585858" opacity="0.2"/>
    <path d="M155.5,157.5 C165.321,158.699 174.988,160.032 184.5,161.5 C184.5,161.833 184.5,162.167 184.5,162.5 C175.732,162.23 167.065,161.23 158.5,159.5 C157.5,158.833 156.5,158.167 155.5,157.5 z" fill="#363636" opacity="0.029"/>
    <path d="M184.5,161.5 C192.112,161.958 199.446,163.291 206.5,165.5 C204.833,165.5 203.167,165.5 201.5,165.5 C195.642,164.859 189.975,163.859 184.5,162.5 C184.5,162.167 184.5,161.833 184.5,161.5 z" fill="#3D3D3D" opacity="0.029"/>
    <path d="M201.5,165.5 C203.167,165.5 204.833,165.5 206.5,165.5 C218.056,167.901 228.723,172.234 238.5,178.5 C237.833,178.5 237.167,178.5 236.5,178.5 C225.294,172.767 213.627,168.433 201.5,165.5 z" fill="#676767" opacity="0.2"/>
    <path d="M96.5,156.5 C99.576,162.295 103.409,167.629 108,172.5 C120.82,182.935 135.32,189.601 151.5,192.5 C149.833,192.5 148.167,192.5 146.5,192.5 C124.235,189.06 107.568,177.726 96.5,158.5 C96.5,157.833 96.5,157.167 96.5,156.5 z" fill="#8A8A8A" opacity="0.239"/>
    <path d="M236.5,178.5 C237.167,178.5 237.833,178.5 238.5,178.5 C251.429,186.432 259.762,197.766 263.5,212.5 C263.5,213.833 263.5,215.167 263.5,216.5 C261.199,208.887 258.032,201.554 254,194.5 C248.622,188.62 242.789,183.286 236.5,178.5 z" fill="#919191" opacity="0.239"/>
    <path d="M146.5,192.5 C148.167,192.5 149.833,192.5 151.5,192.5 C153.099,192.232 154.432,192.566 155.5,193.5 C155.5,193.833 155.5,194.167 155.5,194.5 C152.273,194.324 149.273,193.657 146.5,192.5 z" fill="#393939" opacity="0.031"/>
    <path d="M155.5,193.5 C163.047,193.928 170.381,194.928 177.5,196.5 C175.167,196.5 172.833,196.5 170.5,196.5 C165.25,196.698 160.25,196.031 155.5,194.5 C155.5,194.167 155.5,193.833 155.5,193.5 z" fill="#6F6F6F" opacity="0.667"/>
    <path d="M170.5,196.5 C172.833,196.5 175.167,196.5 177.5,196.5 C185.091,196.585 192.424,197.585 199.5,199.5 C197.5,199.5 195.5,199.5 193.5,199.5 C185.612,199.145 177.946,198.145 170.5,196.5 z" fill="#4A4A4A" opacity="0.029"/>
    <path d="M193.5,199.5 C195.5,199.5 197.5,199.5 199.5,199.5 C201.042,200.301 202.708,200.634 204.5,200.5 C204.5,200.833 204.5,201.167 204.5,201.5 C200.613,201.354 196.946,200.687 193.5,199.5 z" fill="#151515" opacity="0.03"/>
    <path d="M204.5,200.5 C206.292,200.366 207.958,200.699 209.5,201.5 C209.833,202.167 210.167,202.833 210.5,203.5 C208.302,203.125 206.302,202.458 204.5,201.5 C204.5,201.167 204.5,200.833 204.5,200.5 z" fill="#6E6E6E" opacity="0.667"/>
    <path d="M209.5,201.5 C211.153,201.66 212.486,202.326 213.5,203.5 C212.833,203.5 212.167,203.5 211.5,203.5 C211.167,203.5 210.833,203.5 210.5,203.5 C210.167,202.833 209.833,202.167 209.5,201.5 z" fill="#C5C5C5" opacity="0.776"/>
    <path d="M211.5,203.5 C212.167,203.5 212.833,203.5 213.5,203.5 C221.5,205.5 226.5,210.5 228.5,218.5 C228.167,218.5 227.833,218.5 227.5,218.5 C226.252,215.516 224.585,212.682 222.5,210 C218.904,207.539 215.237,205.373 211.5,203.5 z" fill="#848484" opacity="0.239"/>
    <path d="M80.5,32.5 C80.5,32.833 80.5,33.167 80.5,33.5 C80.5,92.5 80.5,151.5 80.5,210.5 C95.167,210.5 109.833,210.5 124.5,210.5 C125.117,210.611 125.617,210.944 126,211.5 C126.5,221.161 126.666,230.828 126.5,240.5 C126.5,241.5 126.5,242.5 126.5,243.5 C125.732,242.737 125.232,241.737 125,240.5 C124.5,230.839 124.334,221.172 124.5,211.5 C109.5,211.5 94.5,211.5 79.5,211.5 C79.168,151.664 79.501,91.998 80.5,32.5 z" fill="#898989" opacity="0.669"/>
    <path d="M45.5,32.5 C46.499,91.998 46.832,151.664 46.5,211.5 C31.5,211.5 16.5,211.5 1.5,211.5 C1.5,221.833 1.5,232.167 1.5,242.5 C31.338,242.169 61.005,242.502 90.5,243.5 C60.833,243.5 31.167,243.5 1.5,243.5 C0.833,243.167 0.167,242.833 -0.5,242.5 C-0.5,232.167 -0.5,221.833 -0.5,211.5 C0.167,211.167 0.833,210.833 1.5,210.5 C16.167,210.5 30.833,210.5 45.5,210.5 C45.5,151.5 45.5,92.5 45.5,33.5 C45.5,33.167 45.5,32.833 45.5,32.5 z" fill="#8C8C8C" opacity="0.667"/>
    <path d="M227.5,218.5 C227.833,218.5 228.167,218.5 228.5,218.5 C229.434,219.568 229.768,220.901 229.5,222.5 C229.167,222.5 228.833,222.5 228.5,222.5 C227.566,221.432 227.232,220.099 227.5,218.5 z" fill="#565656" opacity="0.667"/>
    <path d="M228.5,222.5 C228.833,222.5 229.167,222.5 229.5,222.5 C229.676,227.88 229.342,233.213 228.5,238.5 C228.167,238.5 227.833,238.5 227.5,238.5 C228.275,233.203 228.608,227.87 228.5,222.5 z" fill="#121212" opacity="0.029"/>
    <path d="M263.5,212.5 C264.823,216.429 265.823,220.429 266.5,224.5 C266.5,227.5 266.5,230.5 266.5,233.5 C265.775,237.231 264.775,240.898 263.5,244.5 C263.5,243.167 263.5,241.833 263.5,240.5 C264.76,232.504 264.76,224.504 263.5,216.5 C263.5,215.167 263.5,213.833 263.5,212.5 z" fill="#3D3D3D" opacity="0.667"/>
    <path d="M1.5,243.5 C31.167,243.5 60.833,243.5 90.5,243.5 C90.5,244.833 90.5,246.167 90.5,247.5 C89.596,246.791 89.263,245.791 89.5,244.5 C59.995,244.831 30.662,244.498 1.5,243.5 z" fill="#010101" opacity="0.028"/>
    <path d="M263.5,240.5 C263.5,241.833 263.5,243.167 263.5,244.5 C263.5,244.833 263.5,245.167 263.5,245.5 C262.833,246.167 262.167,246.833 261.5,247.5 C261.721,244.933 262.388,242.599 263.5,240.5 z" fill="#A1A1A1" opacity="0.2"/>
    <path d="M263.5,245.5 C263.598,247.553 262.931,249.22 261.5,250.5 C261.5,249.833 261.5,249.167 261.5,248.5 C261.5,248.167 261.5,247.833 261.5,247.5 C262.167,246.833 262.833,246.167 263.5,245.5 z" fill="#1F1F1F" opacity="0.2"/>
    <path d="M90.5,243.5 C92.278,248.825 94.278,254.158 96.5,259.5 C96.5,260.167 96.5,260.833 96.5,261.5 C93.432,257.356 91.432,252.689 90.5,247.5 C90.5,246.167 90.5,244.833 90.5,243.5 z" fill="#626262" opacity="0.2"/>
    <path d="M261.5,248.5 C261.5,249.167 261.5,249.833 261.5,250.5 C261.737,251.791 261.404,252.791 260.5,253.5 C260.167,253.5 259.833,253.5 259.5,253.5 C259.402,251.447 260.069,249.78 261.5,248.5 z" fill="#747474" opacity="0.039"/>
    <path d="M126.5,240.5 C131.017,250.179 138.351,257.012 148.5,261 C153.22,262.698 157.887,264.198 162.5,265.5 C162.5,265.833 162.5,266.167 162.5,266.5 C146.46,264.832 134.46,257.165 126.5,243.5 C126.5,242.5 126.5,241.5 126.5,240.5 z" fill="#737373" opacity="0.776"/>
    <path d="M227.5,238.5 C227.833,238.5 228.167,238.5 228.5,238.5 C224.535,249.798 216.868,257.465 205.5,261.5 C205.5,261.167 205.5,260.833 205.5,260.5 C215.859,256.141 223.192,248.808 227.5,238.5 z" fill="#A0A0A0" opacity="0.776"/>
    <path d="M259.5,253.5 C259.833,253.5 260.167,253.5 260.5,253.5 C260.34,255.153 259.674,256.486 258.5,257.5 C258.5,256.833 258.5,256.167 258.5,255.5 C258.328,254.508 258.662,253.842 259.5,253.5 z" fill="#404040" opacity="0.039"/>
    <path d="M205.5,260.5 C205.5,260.833 205.5,261.167 205.5,261.5 C204.791,262.404 203.791,262.737 202.5,262.5 C202.5,262.167 202.5,261.833 202.5,261.5 C203.209,260.596 204.209,260.263 205.5,260.5 z" fill="#858585" opacity="0.776"/>
    <path d="M202.5,261.5 C202.5,261.833 202.5,262.167 202.5,262.5 C199.916,264.472 196.916,265.472 193.5,265.5 C193.5,265.167 193.5,264.833 193.5,264.5 C196.341,263.331 199.341,262.331 202.5,261.5 z" fill="#737373" opacity="0.667"/>
    <path d="M193.5,264.5 C193.5,264.833 193.5,265.167 193.5,265.5 C183.22,268.571 172.886,268.904 162.5,266.5 C162.5,266.167 162.5,265.833 162.5,265.5 C172.861,266.572 183.194,266.239 193.5,264.5 z" fill="#4E4E4E" opacity="0.027"/>
    <path d="M258.5,255.5 C258.5,256.167 258.5,256.833 258.5,257.5 C250.833,271.167 240.167,281.833 226.5,289.5 C225.833,289.5 225.167,289.5 224.5,289.5 C238.833,281.167 250.167,269.833 258.5,255.5 z" fill="#959595" opacity="0.239"/>
    <path d="M224.5,289.5 C225.167,289.5 225.833,289.5 226.5,289.5 C224.151,291.341 221.485,292.674 218.5,293.5 C218.5,293.167 218.5,292.833 218.5,292.5 C220.181,290.992 222.181,289.992 224.5,289.5 z" fill="#494949" opacity="0.039"/>
    <path d="M218.5,292.5 C218.5,292.833 218.5,293.167 218.5,293.5 C217.791,294.404 216.791,294.737 215.5,294.5 C214.833,294.5 214.167,294.5 213.5,294.5 C214.78,293.069 216.447,292.402 218.5,292.5 z" fill="#757575" opacity="0.039"/>
    <path d="M96.5,259.5 C99.645,263.766 102.812,268.099 106,272.5 C119.641,286.07 135.807,295.07 154.5,299.5 C153.5,299.5 152.5,299.5 151.5,299.5 C127.766,294.48 109.433,281.814 96.5,261.5 C96.5,260.833 96.5,260.167 96.5,259.5 z" fill="#858585" opacity="0.667"/>
    <path d="M213.5,294.5 C214.167,294.5 214.833,294.5 215.5,294.5 C212.203,296.601 208.537,297.935 204.5,298.5 C204.5,298.167 204.5,297.833 204.5,297.5 C207.215,295.928 210.215,294.928 213.5,294.5 z" fill="#5A5A5A" opacity="0.039"/>
    <path d="M151.5,299.5 C152.5,299.5 153.5,299.5 154.5,299.5 C154.833,299.5 155.167,299.5 155.5,299.5 C156.833,300.167 158.167,300.833 159.5,301.5 C156.505,301.706 153.838,301.04 151.5,299.5 z" fill="#171717" opacity="0.027"/>
    <path d="M155.5,299.5 C160.028,299.77 164.361,300.437 168.5,301.5 C165.833,301.5 163.167,301.5 160.5,301.5 C160.167,301.5 159.833,301.5 159.5,301.5 C158.167,300.833 156.833,300.167 155.5,299.5 z" fill="#B3B3B3" opacity="0.667"/>
    <path d="M204.5,297.5 C204.5,297.833 204.5,298.167 204.5,298.5 C200.485,300.373 196.151,301.373 191.5,301.5 C187.833,301.5 184.167,301.5 180.5,301.5 C188.433,300.585 196.433,299.251 204.5,297.5 z" fill="#797979" opacity="0.667"/>
    <path d="M160.5,301.5 C163.167,301.5 165.833,301.5 168.5,301.5 C172.5,301.5 176.5,301.5 180.5,301.5 C184.167,301.5 187.833,301.5 191.5,301.5 C187.833,302.167 184.167,302.833 180.5,303.5 C176.5,303.5 172.5,303.5 168.5,303.5 C165.833,302.833 163.167,302.167 160.5,301.5 z" fill="#1D1D1D" opacity="0.667"/>
  </g>
</svg>
