<svg width="43" height="49" viewBox="0 0 43 49" fill="none" xmlns="http://www.w3.org/2000/svg">
<g clip-path="url(#clip0_223_11715)">
<path opacity="0.667" d="M0.242188 -0.0805664C6.84518 -0.0805664 13.4482 -0.0805664 20.0512 -0.0805664C20.0968 0.0466079 20.1773 0.154118 20.2927 0.241802C20.4002 1.90732 20.4002 3.573 20.2927 5.23851C20.2311 5.32813 20.1505 5.3818 20.0512 5.3997C17.6891 5.3997 15.3271 5.3997 12.965 5.3997C12.965 5.34602 12.965 5.29219 12.965 5.23851C15.3271 5.23851 17.6891 5.23851 20.0512 5.23851C20.0512 3.573 20.0512 1.90732 20.0512 0.241802C13.4482 0.241802 6.84518 0.241802 0.242188 0.241802C0.242188 0.188128 0.242188 0.134292 0.242188 0.0806178C0.242188 0.0269435 0.242188 -0.0268921 0.242188 -0.0805664Z" fill="#636363"/>
<path opacity="0.667" d="M0.242019 0.0806274C0.242019 0.134302 0.242019 0.188137 0.242019 0.241812C0.242019 1.90733 0.242019 3.57301 0.242019 5.23852C2.60412 5.23852 4.96606 5.23852 7.32816 5.23852C7.32816 5.2922 7.32816 5.34603 7.32816 5.39971C4.96606 5.39971 2.60412 5.39971 0.242019 5.39971C0.1346 5.34603 0.0273414 5.2922 -0.0800781 5.23852C-0.0800781 3.57301 -0.0800781 1.90733 -0.0800781 0.241812C0.0273414 0.188137 0.1346 0.134302 0.242019 0.0806274Z" fill="#474747"/>
<path d="M0.242188 0.241821C6.84518 0.241821 13.4482 0.241821 20.0512 0.241821C20.0512 1.90734 20.0512 3.57302 20.0512 5.23853C17.6891 5.23853 15.3271 5.23853 12.965 5.23853C12.8041 14.8287 12.7505 24.4459 12.804 34.0905C15.2197 34.0905 17.6354 34.0905 20.0512 34.0905C20.0244 35.6495 20.0512 37.2076 20.1317 38.7649C20.1691 38.9642 20.2496 39.1254 20.3733 39.2484C21.6552 41.451 23.5878 42.6868 26.171 42.9556C27.8437 43.3431 29.508 43.2895 31.1635 42.7945C31.7137 42.7899 32.1968 42.6288 32.613 42.3109C32.8209 42.3491 32.9819 42.2954 33.0961 42.1497C34.9269 41.4993 36.1617 40.2635 36.8002 38.4425C36.9358 37.5903 36.9896 36.7307 36.9613 35.8635C37.0045 35.6058 36.9507 35.3909 36.8002 35.2188C36.4781 33.9293 35.6729 33.1234 34.3845 32.801C34.2212 32.6118 34.0065 32.5045 33.7403 32.4787C33.492 32.3496 33.2237 32.2959 32.9351 32.3175C32.6465 32.3391 32.3782 32.2854 32.1298 32.1563C30.9902 31.8476 29.8093 31.6864 28.5868 31.6727C27.4403 31.4194 26.2591 31.2582 25.0437 31.1892C24.8717 31.0386 24.657 30.9848 24.3995 31.028C21.7937 30.5607 19.4585 29.4863 17.3939 27.8043C16.6545 27.0192 16.0372 26.1594 15.5418 25.2254C15.58 25.0173 15.5264 24.8561 15.3808 24.7418C15.2978 24.3559 15.1906 23.9797 15.0587 23.6135C15.01 23.1505 14.9026 22.7207 14.7366 22.3241C14.7366 22.1092 14.7366 21.8942 14.7366 21.6793C14.6185 20.0188 14.8332 18.407 15.3808 16.8438C16.7228 14.1037 18.7628 12.0619 21.5006 10.7188C22.697 10.3373 23.878 9.96123 25.0437 9.59051C27.023 9.25782 29.0092 9.20415 31.0025 9.42932C31.3988 9.5955 31.8282 9.70301 32.2909 9.75169C32.9863 9.96574 33.6841 10.1806 34.3845 10.3964C34.6947 10.6854 35.0704 10.8466 35.5119 10.88C37.0532 11.8313 38.3953 13.0134 39.5381 14.426C40.4876 15.8451 41.1318 17.4033 41.4707 19.1004C40.9107 19.2079 40.3738 19.3154 39.8602 19.4227C39.4844 19.4227 39.1086 19.4227 38.7328 19.4227C37.8672 19.4756 37.0083 19.4219 36.156 19.2616C35.4917 17.1459 34.0959 15.8025 31.9688 15.232C31.3231 14.9223 30.6252 14.7342 29.8751 14.6678C28.7349 14.5397 27.6076 14.5666 26.4931 14.7484C25.6254 14.7906 24.8202 15.0055 24.0774 15.3931C22.2084 15.9207 20.9737 17.1027 20.3733 18.9392C19.9438 20.0138 19.9438 21.0883 20.3733 22.1629C20.4066 22.6047 20.5677 22.9807 20.8564 23.2912C21.3909 24.2323 22.1962 24.8232 23.2722 25.0642C23.9655 25.4262 24.7169 25.6412 25.5268 25.7089C26.9062 25.9878 28.302 26.149 29.7141 26.1925C30.5958 26.4115 31.5085 26.5727 32.4519 26.676C34.405 27.1488 36.2839 27.8474 38.0886 28.7714C39.1015 29.5429 40.0409 30.4026 40.907 31.3504C41.5563 32.4874 42.0664 33.6693 42.4369 34.8964C42.6399 36.1865 42.6399 37.476 42.4369 38.7649C42.2579 39.1032 42.1504 39.4794 42.1148 39.8931C42.1148 39.9468 42.1148 40.0006 42.1148 40.0543C41.8844 40.2606 41.777 40.5293 41.7928 40.8602C41.6578 40.9154 41.604 41.0227 41.6317 41.1826C40.2897 43.4929 38.4644 45.3197 36.156 46.6629C35.7826 46.7422 35.4605 46.9034 35.1898 47.1464C34.8591 47.1306 34.5907 47.2381 34.3845 47.4688C33.8555 47.5378 33.3723 47.699 32.9351 47.9524C31.6359 48.2346 30.3475 48.4496 29.0699 48.5971C28.4257 48.5971 27.7815 48.5971 27.1373 48.5971C26.4707 48.4258 25.7729 48.3182 25.0437 48.2747C24.9901 48.2747 24.9363 48.2747 24.8826 48.2747C21.8722 47.5607 19.2686 46.11 17.0718 43.9227C16.5584 43.2134 16.0483 42.515 15.5418 41.8274C15.184 40.9663 14.8619 40.1067 14.5755 39.2484C9.82539 39.0875 5.04756 39.0339 0.242188 39.0872C0.242188 37.4217 0.242188 35.756 0.242188 34.0905C2.65792 34.0905 5.07365 34.0905 7.48938 34.0905C7.54285 24.4459 7.48922 14.8287 7.32833 5.23853C4.96623 5.23853 2.60429 5.23853 0.242188 5.23853C0.242188 3.57302 0.242188 1.90734 0.242188 0.241821Z" fill="#003B6F"/>
<path opacity="0.029" d="M0.242188 5.39972C2.60429 5.39972 4.96623 5.39972 7.32833 5.39972C7.32833 14.9096 7.32833 24.4195 7.32833 33.9293C4.96623 33.9293 2.60429 33.9293 0.242188 33.9293C2.52215 33.7688 4.83046 33.7151 7.16728 33.7681C7.16728 24.3658 7.16728 14.9633 7.16728 5.5609C4.83046 5.61393 2.52215 5.56026 0.242188 5.39972Z" fill="black"/>
<path opacity="0.029" d="M12.9648 5.39972C15.3269 5.39972 17.6889 5.39972 20.051 5.39972C17.771 5.56026 15.4627 5.61393 13.1259 5.5609C13.1259 14.9633 13.1259 24.3658 13.1259 33.7681C15.4627 33.7151 17.771 33.7688 20.051 33.9293C17.6889 33.9293 15.3269 33.9293 12.9648 33.9293C12.9648 24.4195 12.9648 14.9096 12.9648 5.39972Z" fill="black"/>
<path opacity="0.667" d="M31.8077 9.42933C31.5392 9.42933 31.2709 9.42933 31.0024 9.42933C29.0091 9.20416 27.0229 9.25783 25.0436 9.59051C24.8289 9.59051 24.6141 9.59051 24.3994 9.59051C26.8554 8.82118 29.3249 8.76751 31.8077 9.42933Z" fill="#414141"/>
<path opacity="0.667" d="M31.002 9.42932C31.2704 9.42932 31.5387 9.42932 31.8072 9.42932C31.8608 9.42932 31.9146 9.42932 31.9682 9.42932C32.0757 9.53683 32.1829 9.64418 32.2903 9.75169C31.8276 9.70301 31.3983 9.5955 31.002 9.42932Z" fill="#B3B3B3"/>
<path opacity="0.2" d="M31.9688 9.42932C32.9629 9.56375 33.8754 9.88612 34.7066 10.3964C34.5992 10.3964 34.4919 10.3964 34.3845 10.3964C33.6841 10.1806 32.9863 9.96574 32.2908 9.75169C32.1834 9.64418 32.0762 9.53683 31.9688 9.42932Z" fill="#5E5E5E"/>
<path opacity="0.667" d="M24.3997 9.59052C24.6144 9.59052 24.8292 9.59052 25.0439 9.59052C23.8782 9.96124 22.6972 10.3373 21.5008 10.7188C21.3934 10.7188 21.2861 10.7188 21.1787 10.7188C22.1722 10.1543 23.2458 9.77829 24.3997 9.59052Z" fill="#818181"/>
<path opacity="0.833" d="M34.3848 10.3964C34.4922 10.3964 34.5994 10.3964 34.7069 10.3964C35.0133 10.4441 35.2818 10.5516 35.5121 10.7188C35.5121 10.7725 35.5121 10.8263 35.5121 10.88C35.0707 10.8466 34.6949 10.6854 34.3848 10.3964Z" fill="#A8A8A8"/>
<path opacity="0.89" d="M21.1786 10.7188C21.286 10.7188 21.3933 10.7188 21.5007 10.7188C18.7629 12.0619 16.7229 14.1036 15.3809 16.8438C15.3809 16.7362 15.3809 16.6289 15.3809 16.5214C16.6156 13.8888 18.5482 11.9545 21.1786 10.7188Z" fill="#A7A7A7"/>
<path opacity="0.239" d="M35.5117 10.7188C37.0985 11.5547 38.4406 12.6829 39.5379 14.1036C39.5379 14.2111 39.5379 14.3185 39.5379 14.426C38.3951 13.0134 37.0531 11.8314 35.5117 10.8799C35.5117 10.8263 35.5117 10.7724 35.5117 10.7188Z" fill="#ACACAC"/>
<path opacity="0.239" d="M39.5381 14.1036C40.673 15.5714 41.4246 17.2371 41.7928 19.1003C41.7356 19.2651 41.6282 19.3726 41.4707 19.4227C40.9339 19.4227 40.397 19.4227 39.8602 19.4227C40.3738 19.3154 40.9107 19.2079 41.4707 19.1003C41.1318 17.4032 40.4876 15.8451 39.5381 14.426C39.5381 14.3185 39.5381 14.2111 39.5381 14.1036Z" fill="#888888"/>
<path opacity="0.028" d="M31.9685 15.2319C31.9685 15.2856 31.9685 15.3395 31.9685 15.3931C29.9509 14.8999 27.911 14.7926 25.8486 15.0708C26.0633 14.9633 26.2781 14.8559 26.4928 14.7484C27.6073 14.5666 28.7346 14.5398 29.8749 14.6678C30.6249 14.7342 31.3228 14.9223 31.9685 15.2319Z" fill="#434343"/>
<path opacity="0.2" d="M26.4929 14.7484C26.2782 14.8559 26.0634 14.9632 25.8487 15.0707C25.2697 15.2637 24.6793 15.4248 24.0771 15.5543C24.0771 15.5006 24.0771 15.4468 24.0771 15.3931C24.8199 15.0054 25.6251 14.7906 26.4929 14.7484Z" fill="#717171"/>
<path opacity="0.239" d="M31.9688 15.2319C34.0959 15.8025 35.4917 17.1458 36.156 19.2615C37.0083 19.4219 37.8672 19.4756 38.7328 19.4227C37.905 19.582 37.046 19.6356 36.156 19.5839C35.7064 18.7933 35.2501 17.9874 34.7871 17.1661C33.9451 16.4008 33.0057 15.8099 31.9688 15.3931C31.9688 15.3394 31.9688 15.2856 31.9688 15.2319Z" fill="#888888"/>
<path opacity="0.667" d="M15.3809 16.5214C15.3809 16.6289 15.3809 16.7363 15.3809 16.8438C14.8333 18.407 14.6187 20.0188 14.7367 21.6793C14.5776 20.8508 14.524 19.9911 14.5757 19.1004C14.6541 18.167 14.9226 17.3074 15.3809 16.5214Z" fill="#787878"/>
<path opacity="0.239" d="M24.0772 15.3931C24.0772 15.4468 24.0772 15.5006 24.0772 15.5543C22.4031 16.1752 21.2221 17.3035 20.5341 18.9392C20.4805 18.9392 20.4267 18.9392 20.373 18.9392C20.9734 17.1026 22.2082 15.9207 24.0772 15.3931Z" fill="#909090"/>
<path opacity="0.027" d="M14.5752 19.1003C14.5235 19.991 14.5771 20.8508 14.7362 21.6793C14.7362 21.8941 14.7362 22.1092 14.7362 22.324C14.7362 22.5927 14.7362 22.8613 14.7362 23.1299C14.4948 22.3651 14.3874 21.5592 14.4142 20.7122C14.4145 20.1451 14.4681 19.6079 14.5752 19.1003Z" fill="#0B0B0B"/>
<path opacity="0.027" d="M38.733 19.4227C39.1088 19.4227 39.4846 19.4227 39.8604 19.4227C40.3971 19.4227 40.9341 19.4227 41.4709 19.4227C39.7056 19.7519 37.9341 19.8055 36.1562 19.5839C37.0462 19.6357 37.9052 19.582 38.733 19.4227Z" fill="#070707"/>
<path opacity="0.027" d="M20.3729 18.9391C20.4265 18.9391 20.4803 18.9391 20.534 18.9391C20.3193 20.0138 20.3193 21.0882 20.534 22.1628C20.4803 22.1628 20.4265 22.1628 20.3729 22.1628C19.9434 21.0882 19.9434 20.0138 20.3729 18.9391Z" fill="#525252"/>
<path opacity="0.776" d="M20.373 22.1628C20.4267 22.1628 20.4805 22.1628 20.5341 22.1628C20.7332 22.5092 20.8942 22.8853 21.0172 23.2911C20.9636 23.2911 20.9098 23.2911 20.8562 23.2911C20.5674 22.9807 20.4064 22.6046 20.373 22.1628Z" fill="#787878"/>
<path opacity="0.667" d="M14.7363 22.324C14.9024 22.7207 15.0098 23.1504 15.0584 23.6135C14.951 23.506 14.8437 23.3987 14.7363 23.2911C14.7363 23.2375 14.7363 23.1836 14.7363 23.13C14.7363 22.8613 14.7363 22.5927 14.7363 22.324Z" fill="#AFAFAF"/>
<path opacity="0.2" d="M14.7363 23.2911C14.8437 23.3986 14.951 23.506 15.0584 23.6135C15.1903 23.9797 15.2976 24.3559 15.3805 24.7418C15.3269 24.7418 15.2731 24.7418 15.2195 24.7418C14.9372 24.3153 14.7761 23.8317 14.7363 23.2911Z" fill="#666666"/>
<path opacity="0.776" d="M20.8564 23.2911C20.9101 23.2911 20.9639 23.2911 21.0175 23.2911C21.6341 24.0155 22.3858 24.5529 23.2722 24.903C23.2722 24.9567 23.2722 25.0105 23.2722 25.0642C22.1962 24.8232 21.391 24.2323 20.8564 23.2911Z" fill="#999999"/>
<path opacity="0.039" d="M15.2193 24.7418C15.2729 24.7418 15.3267 24.7418 15.3803 24.7418C15.5259 24.8561 15.5796 25.0173 15.5414 25.2254C15.5414 25.3329 15.5414 25.4402 15.5414 25.5477C15.3109 25.3414 15.2035 25.0727 15.2193 24.7418Z" fill="#4C4C4C"/>
<path opacity="0.2" d="M23.2725 24.903C23.8746 25.0324 24.465 25.1936 25.044 25.3866C25.205 25.4941 25.3661 25.6014 25.5271 25.7089C24.7172 25.6412 23.9658 25.4262 23.2725 25.0642C23.2725 25.0105 23.2725 24.9567 23.2725 24.903Z" fill="#585858"/>
<path opacity="0.029" d="M25.0439 25.3865C26.6256 25.5798 28.1825 25.7947 29.7144 26.0313C29.7144 26.0849 29.7144 26.1388 29.7144 26.1925C28.3023 26.1489 26.9065 25.9878 25.5271 25.7089C25.366 25.6014 25.205 25.494 25.0439 25.3865Z" fill="#363636"/>
<path opacity="0.029" d="M29.7139 26.0312C30.9398 26.1051 32.1209 26.3199 33.2569 26.676C32.9885 26.676 32.7202 26.676 32.4517 26.676C31.5083 26.5727 30.5956 26.4115 29.7139 26.1924C29.7139 26.1388 29.7139 26.0849 29.7139 26.0312Z" fill="#3D3D3D"/>
<path opacity="0.2" d="M32.4521 26.676C32.7206 26.676 32.9889 26.676 33.2574 26.676C35.1185 27.063 36.8364 27.7614 38.411 28.7714C38.3035 28.7714 38.1963 28.7714 38.0889 28.7714C36.2841 27.8474 34.4052 27.1488 32.4521 26.676Z" fill="#676767"/>
<path opacity="0.239" d="M15.542 25.2253C16.0374 26.1594 16.6547 27.0192 17.3941 27.8043C19.4587 29.4862 21.7939 30.5607 24.3997 31.028C24.1312 31.028 23.8629 31.028 23.5944 31.028C20.0087 30.4735 17.3245 28.6466 15.542 25.5477C15.542 25.4402 15.542 25.3329 15.542 25.2253Z" fill="#8A8A8A"/>
<path opacity="0.239" d="M38.0889 28.7714C38.1963 28.7714 38.3035 28.7714 38.411 28.7714C40.4932 30.0499 41.8352 31.8768 42.4372 34.2517C42.4372 34.4665 42.4372 34.6816 42.4372 34.8964C42.0666 33.6693 41.5566 32.4874 40.9072 31.3504C40.0411 30.4026 39.1017 29.5429 38.0889 28.7714Z" fill="#919191"/>
<path opacity="0.031" d="M23.5938 31.028C23.8622 31.028 24.1305 31.028 24.399 31.028C24.6565 30.9848 24.8712 31.0386 25.0432 31.1892C25.0432 31.2428 25.0432 31.2967 25.0432 31.3503C24.5235 31.322 24.0403 31.2145 23.5938 31.028Z" fill="#393939"/>
<path opacity="0.667" d="M25.0439 31.1891C26.2594 31.2581 27.4405 31.4193 28.587 31.6727C28.2113 31.6727 27.8354 31.6727 27.4597 31.6727C26.6142 31.7046 25.8089 31.5971 25.0439 31.3503C25.0439 31.2967 25.0439 31.2428 25.0439 31.1891Z" fill="#6F6F6F"/>
<path opacity="0.029" d="M27.459 31.6727C27.8347 31.6727 28.2106 31.6727 28.5863 31.6727C29.8088 31.6864 30.9898 31.8476 32.1294 32.1563C31.8073 32.1563 31.4852 32.1563 31.1631 32.1563C29.8928 32.0991 28.6582 31.9379 27.459 31.6727Z" fill="#4A4A4A"/>
<path opacity="0.03" d="M31.1631 32.1562C31.4852 32.1562 31.8073 32.1562 32.1294 32.1562C32.3777 32.2854 32.646 32.339 32.9346 32.3174C32.9346 32.3711 32.9346 32.4249 32.9346 32.4786C32.3086 32.4551 31.7181 32.3476 31.1631 32.1562Z" fill="#151515"/>
<path opacity="0.667" d="M32.9346 32.3175C33.2232 32.2959 33.4915 32.3495 33.7398 32.4786C33.7934 32.5861 33.8472 32.6935 33.9009 32.801C33.5469 32.7406 33.2248 32.6331 32.9346 32.4786C32.9346 32.425 32.9346 32.3711 32.9346 32.3175Z" fill="#6E6E6E"/>
<path opacity="0.776" d="M33.7402 32.4786C34.0064 32.5044 34.2211 32.6118 34.3844 32.801C34.277 32.801 34.1698 32.801 34.0623 32.801C34.0087 32.801 33.9549 32.801 33.9013 32.801C33.8477 32.6935 33.7939 32.5861 33.7402 32.4786Z" fill="#C5C5C5"/>
<path opacity="0.239" d="M34.0625 32.801C34.1699 32.801 34.2772 32.801 34.3846 32.801C35.673 33.1234 36.4782 33.9293 36.8003 35.2188C36.7467 35.2188 36.6929 35.2188 36.6393 35.2188C36.4383 34.7378 36.1698 34.281 35.834 33.8487C35.2549 33.452 34.6643 33.1029 34.0625 32.801Z" fill="#848484"/>
<path opacity="0.669" d="M12.9652 5.23853C12.9652 5.2922 12.9652 5.34604 12.9652 5.39971C12.9652 14.9096 12.9652 24.4194 12.9652 33.9293C15.3273 33.9293 17.6893 33.9293 20.0514 33.9293C20.1508 33.9472 20.2313 34.0009 20.293 34.0905C20.3735 35.6477 20.4002 37.2059 20.3735 38.7648C20.3735 38.926 20.3735 39.0872 20.3735 39.2484C20.2498 39.1254 20.1693 38.9642 20.1319 38.7648C20.0514 37.2076 20.0247 35.6495 20.0514 34.0905C17.6357 34.0905 15.2199 34.0905 12.8042 34.0905C12.7507 24.4459 12.8044 14.8287 12.9652 5.23853Z" fill="#898989"/>
<path opacity="0.667" d="M7.32816 5.23853C7.48905 14.8287 7.54268 24.4459 7.48921 34.0905C5.07348 34.0905 2.65775 34.0905 0.242019 34.0905C0.242019 35.756 0.242019 37.4217 0.242019 39.0872C5.04739 39.0339 9.82522 39.0875 14.5754 39.2484C9.79752 39.2484 5.01985 39.2484 0.242019 39.2484C0.1346 39.1947 0.0273413 39.1409 -0.0800781 39.0872C-0.0800781 37.4217 -0.0800781 35.756 -0.0800781 34.0905C0.0273413 34.0368 0.1346 33.983 0.242019 33.9293C2.60412 33.9293 4.96606 33.9293 7.32816 33.9293C7.32816 24.4194 7.32816 14.9096 7.32816 5.39971C7.32816 5.34604 7.32816 5.2922 7.32816 5.23853Z" fill="#8C8C8C"/>
<path opacity="0.667" d="M36.6394 35.2188C36.693 35.2188 36.7468 35.2188 36.8005 35.2188C36.9509 35.3909 37.0047 35.6058 36.9615 35.8635C36.9079 35.8635 36.8541 35.8635 36.8005 35.8635C36.65 35.6913 36.5963 35.4765 36.6394 35.2188Z" fill="#565656"/>
<path opacity="0.029" d="M36.7997 35.8635C36.8533 35.8635 36.9071 35.8635 36.9608 35.8635C36.9891 36.7307 36.9353 37.5903 36.7997 38.4425C36.7461 38.4425 36.6923 38.4425 36.6387 38.4425C36.7635 37.5887 36.8171 36.7291 36.7997 35.8635Z" fill="#121212"/>
<path opacity="0.667" d="M42.4365 34.2516C42.6496 34.8849 42.8106 35.5297 42.9197 36.1859C42.9197 36.6694 42.9197 37.153 42.9197 37.6365C42.8029 38.2379 42.6419 38.829 42.4365 39.4095C42.4365 39.1947 42.4365 38.9797 42.4365 38.7648C42.6394 37.476 42.6394 36.1865 42.4365 34.8964C42.4365 34.6815 42.4365 34.4665 42.4365 34.2516Z" fill="#3D3D3D"/>
<path opacity="0.028" d="M0.242188 39.2484C5.02002 39.2484 9.79769 39.2484 14.5755 39.2484C14.5755 39.4632 14.5755 39.6782 14.5755 39.8931C14.4299 39.7788 14.3763 39.6176 14.4145 39.4095C9.66273 39.4629 4.93869 39.4092 0.242188 39.2484Z" fill="#010101"/>
<path opacity="0.2" d="M42.4364 38.7648C42.4364 38.9797 42.4364 39.1947 42.4364 39.4096C42.4364 39.4632 42.4364 39.5171 42.4364 39.5708C42.3289 39.6783 42.2217 39.7856 42.1143 39.8931C42.1498 39.4794 42.2573 39.1032 42.4364 38.7648Z" fill="#A1A1A1"/>
<path opacity="0.2" d="M42.4364 39.5707C42.4521 39.9017 42.3447 40.1703 42.1143 40.3767C42.1143 40.2692 42.1143 40.1618 42.1143 40.0543C42.1143 40.0006 42.1143 39.9468 42.1143 39.8931C42.2217 39.7856 42.3289 39.6782 42.4364 39.5707Z" fill="#1F1F1F"/>
<path opacity="0.2" d="M14.5752 39.2484C14.8615 40.1067 15.1836 40.9663 15.5415 41.8273C15.5415 41.9348 15.5415 42.0422 15.5415 42.1497C15.0474 41.4817 14.7253 40.7295 14.5752 39.8931C14.5752 39.6782 14.5752 39.4632 14.5752 39.2484Z" fill="#626262"/>
<path opacity="0.039" d="M42.1146 40.0543C42.1146 40.1618 42.1146 40.2692 42.1146 40.3767C42.1528 40.5848 42.0992 40.746 41.9536 40.8602C41.9 40.8602 41.8462 40.8602 41.7925 40.8602C41.7767 40.5293 41.8842 40.2606 42.1146 40.0543Z" fill="#747474"/>
<path opacity="0.776" d="M20.373 38.7648C21.1005 40.3249 22.2816 41.4263 23.9161 42.0691C24.6763 42.3428 25.4279 42.5846 26.1708 42.7944C26.1708 42.8481 26.1708 42.9019 26.1708 42.9556C23.5876 42.6868 21.655 41.451 20.373 39.2484C20.373 39.0872 20.373 38.926 20.373 38.7648Z" fill="#737373"/>
<path opacity="0.776" d="M36.6388 38.4424C36.6924 38.4424 36.7462 38.4424 36.7998 38.4424C36.1613 40.2635 34.9265 41.4993 33.0957 42.1497C33.0957 42.096 33.0957 42.0422 33.0957 41.9885C34.764 41.2859 35.945 40.1039 36.6388 38.4424Z" fill="#A0A0A0"/>
<path opacity="0.039" d="M41.7921 40.8602C41.8458 40.8602 41.8996 40.8602 41.9532 40.8602C41.9274 41.1267 41.8202 41.3415 41.6311 41.505C41.6311 41.3975 41.6311 41.2901 41.6311 41.1826C41.6034 41.0227 41.6572 40.9154 41.7921 40.8602Z" fill="#404040"/>
<path opacity="0.776" d="M33.0964 41.9885C33.0964 42.0422 33.0964 42.096 33.0964 42.1497C32.9822 42.2954 32.8212 42.3491 32.6133 42.3109C32.6133 42.2572 32.6133 42.2034 32.6133 42.1497C32.7275 42.004 32.8885 41.9503 33.0964 41.9885Z" fill="#858585"/>
<path opacity="0.667" d="M32.6125 42.1497C32.6125 42.2034 32.6125 42.2572 32.6125 42.3109C32.1964 42.6288 31.7132 42.7899 31.1631 42.7945C31.1631 42.7408 31.1631 42.6869 31.1631 42.6333C31.6206 42.4448 32.1038 42.2837 32.6125 42.1497Z" fill="#737373"/>
<path opacity="0.027" d="M31.1634 42.6332C31.1634 42.6869 31.1634 42.7407 31.1634 42.7944C29.5078 43.2894 27.8436 43.3431 26.1709 42.9556C26.1709 42.9019 26.1709 42.8481 26.1709 42.7944C27.8395 42.9672 29.5036 42.9135 31.1634 42.6332Z" fill="#4E4E4E"/>
<path opacity="0.239" d="M41.6319 41.1826C41.6319 41.2901 41.6319 41.3975 41.6319 41.505C40.3971 43.7079 38.6794 45.4271 36.4783 46.6629C36.3709 46.6629 36.2637 46.6629 36.1562 46.6629C38.4646 45.3197 40.2899 43.4929 41.6319 41.1826Z" fill="#959595"/>
<path opacity="0.039" d="M36.1557 46.6628C36.2632 46.6628 36.3704 46.6628 36.4778 46.6628C36.0995 46.9596 35.6702 47.1744 35.1895 47.3076C35.1895 47.2539 35.1895 47.2001 35.1895 47.1464C35.4602 46.9033 35.7823 46.7421 36.1557 46.6628Z" fill="#494949"/>
<path opacity="0.039" d="M35.19 47.1464C35.19 47.2001 35.19 47.2539 35.19 47.3076C35.0758 47.4533 34.9148 47.507 34.7069 47.4688C34.5994 47.4688 34.4922 47.4688 34.3848 47.4688C34.5909 47.2381 34.8594 47.1306 35.19 47.1464Z" fill="#757575"/>
<path opacity="0.667" d="M15.542 41.8273C16.0485 42.5149 16.5585 43.2134 17.072 43.9227C19.2688 46.11 21.8723 47.5607 24.8828 48.2747C24.7218 48.2747 24.5607 48.2747 24.3997 48.2747C20.5773 47.4656 17.6248 45.424 15.542 42.1497C15.542 42.0422 15.542 41.9348 15.542 41.8273Z" fill="#858585"/>
<path opacity="0.039" d="M34.384 47.4688C34.4914 47.4688 34.5987 47.4688 34.7061 47.4688C34.1751 47.8074 33.5847 48.0224 32.9346 48.1135C32.9346 48.0598 32.9346 48.006 32.9346 47.9523C33.3718 47.6989 33.855 47.5377 34.384 47.4688Z" fill="#5A5A5A"/>
<path opacity="0.027" d="M24.3994 48.2747C24.5605 48.2747 24.7215 48.2747 24.8826 48.2747C24.9362 48.2747 24.99 48.2747 25.0436 48.2747C25.2583 48.3822 25.4731 48.4896 25.6878 48.5971C25.2055 48.6303 24.7759 48.5229 24.3994 48.2747Z" fill="#171717"/>
<path opacity="0.667" d="M25.0439 48.2747C25.7732 48.3182 26.471 48.4257 27.1376 48.5971C26.7081 48.5971 26.2787 48.5971 25.8492 48.5971C25.7956 48.5971 25.7418 48.5971 25.6881 48.5971C25.4735 48.4896 25.2586 48.3822 25.0439 48.2747Z" fill="#B3B3B3"/>
<path opacity="0.667" d="M32.9345 47.9523C32.9345 48.006 32.9345 48.0598 32.9345 48.1135C32.2879 48.4154 31.5899 48.5766 30.8409 48.5971C30.2503 48.5971 29.6599 48.5971 29.0693 48.5971C30.3469 48.4496 31.6353 48.2346 32.9345 47.9523Z" fill="#797979"/>
<path opacity="0.667" d="M25.8486 48.597C26.2781 48.597 26.7075 48.597 27.137 48.597C27.7812 48.597 28.4254 48.597 29.0696 48.597C29.6602 48.597 30.2506 48.597 30.8411 48.597C30.2506 48.7046 29.6602 48.8119 29.0696 48.9194C28.4254 48.9194 27.7812 48.9194 27.137 48.9194C26.7075 48.8119 26.2781 48.7046 25.8486 48.597Z" fill="#1D1D1D"/>
</g>
<defs>
<clipPath id="clip0_223_11715">
<rect width="43" height="49" fill="white"/>
</clipPath>
</defs>
</svg>
